# xmcd CD database file
#
# Track frame offsets:
#	150
#	13939
#	27683
#	41930
#	58828
#	71657
#	87994
#	105443
#	124705
#	144431
#	165740
#	187387
#	204560
#	223442
#
# Disc length: 3228 seconds
#
# Revision: 0
# Processed by: cddbd v1.4PL0 Copyright (c) Steve Scherf et al.
# Submitted via: CDex 1.50Beta7
#
DISCID=e20c9a0e
DTITLE=Jay Jay Johnson - Blue Mode
DYEAR=1900
DGENRE=Jazz
TTITLE0=Teapot
TTITLE1=Afternoon in Paris
TTITLE2=Elora
TTITLE3=Blue mode (1)
TTITLE4=Blue mode (2)
TTITLE5=Capri
TTITLE6=Lover man
TTITLE7=Turnpike
TTITLE8=Sketch
TTITLE9=It could happen to you
TTITLE10=Get happy
TTITLE11=Capri (2)
TTITLE12=Turnpike (2)
TTITLE13=Get Happy (2)
EXTD=
EXTT0=
EXTT1=
EXTT2=
EXTT3=
EXTT4=
EXTT5=
EXTT6=
EXTT7=
EXTT8=
EXTT9=
EXTT10=
EXTT11=
EXTT12=
EXTT13=
PLAYORDER=
